<svg version="1.1" id="Layer_1" xmlns="http://www.w3.org/2000/svg" xmlns:xlink="http://www.w3.org/1999/xlink" x="0px" y="0px"
	 width="100%" viewBox="0 0 408 408" enable-background="new 0 0 408 408" xml:space="preserve">
<path fill="#FECC4D" opacity="1.000000" stroke="none" 
	d="
M172.000000,1.000000 
	C193.354233,1.000000 214.708450,1.000000 236.196121,1.320333 
	C242.808243,3.425843 249.245911,5.380415 255.773956,6.961792 
	C270.469269,10.521631 284.566406,16.004097 297.484650,23.517054 
	C309.811188,30.685913 322.469543,37.751041 332.355835,48.631176 
	C339.661072,56.670769 348.397003,63.491756 355.145752,71.934593 
	C363.207184,82.019630 369.829590,93.254936 376.765381,104.271698 
	C368.018219,104.219376 359.581360,103.880554 351.143860,103.556488 
	C317.966125,102.282196 284.833984,103.183990 251.975662,107.934677 
	C234.293823,110.491127 216.673203,113.180374 198.834244,111.943871 
	C183.766525,110.899452 168.797256,108.507599 153.756058,106.993835 
	C115.420792,103.135727 77.035187,101.472542 38.554390,104.838852 
	C36.714382,104.999809 34.798996,104.299156 33.045109,103.668556 
	C36.363289,98.131432 39.242306,92.698143 42.821690,87.773949 
	C47.925598,80.752449 53.421597,74.003120 58.979061,67.328156 
	C63.525143,61.867947 67.842552,56.004070 73.261070,51.529877 
	C83.181496,43.338341 93.528938,35.564877 104.293098,28.526762 
	C112.335457,23.268295 120.965950,18.493439 129.955811,15.198085 
	C143.226349,10.333590 157.054367,6.993201 170.617844,2.913563 
	C171.216278,2.733568 171.545425,1.658264 172.000000,1.000000 
z"/>
<path fill="#000000" opacity="1.000000" stroke="none" 
	d="
M377.075348,103.991989 
	C369.829590,93.254936 363.207184,82.019630 355.145752,71.934593 
	C348.397003,63.491756 339.661072,56.670769 332.355835,48.631176 
	C322.469543,37.751041 309.811188,30.685913 297.484650,23.517054 
	C284.566406,16.004097 270.469269,10.521631 255.773956,6.961792 
	C249.245911,5.380415 242.808243,3.425843 236.664780,1.320333 
	C294.302887,1.000000 351.605743,1.000000 408.954315,1.000000 
	C408.954315,136.897278 408.954315,272.794556 408.954315,409.000000 
	C327.979370,409.000000 246.958344,409.000000 165.161240,408.666870 
	C165.215652,407.890900 165.998413,407.243317 166.884003,407.036957 
	C175.716782,404.979156 184.592682,403.101624 193.403915,400.957489 
	C201.746155,398.927490 209.641464,396.096375 213.551727,387.036041 
	C218.093613,386.673462 222.240250,386.664459 226.259186,385.943604 
	C238.366104,383.772003 250.708740,382.270081 262.426147,378.737946 
	C276.400177,374.525513 289.502625,368.072815 302.341248,360.721436 
	C315.064697,353.436005 326.802063,345.136505 337.105316,335.058472 
	C346.573914,325.796814 355.167297,315.513611 363.220398,304.973114 
	C369.241516,297.092224 374.648987,288.480042 378.776154,279.481018 
	C383.916565,268.272766 387.763062,256.431396 391.614685,244.681946 
	C396.306824,230.368393 398.171661,215.464005 398.877289,200.483124 
	C399.209473,193.430832 398.649475,186.288559 397.919983,179.246506 
	C397.033630,170.690659 395.828522,162.143158 394.225037,153.693802 
	C392.843933,146.415955 390.710388,139.280914 389.117981,131.812927 
	C391.247314,129.975342 393.452026,128.648727 395.031097,126.790504 
	C398.534241,122.668053 398.478485,117.771019 397.464966,112.726982 
	C396.491913,107.884254 392.869385,106.709648 388.770325,106.020599 
	C384.868561,105.364700 380.973419,104.669762 377.075348,103.991989 
z"/>
<path fill="#F19020" opacity="1.000000" stroke="none" 
	d="
M213.098099,387.064178 
	C209.641464,396.096375 201.746155,398.927490 193.403915,400.957489 
	C184.592682,403.101624 175.716782,404.979156 166.884003,407.036957 
	C165.998413,407.243317 165.215652,407.890900 164.692581,408.666870 
	C151.645767,409.000000 138.291550,409.000000 124.796310,408.712677 
	C124.023781,407.964050 123.457840,407.309052 122.751144,407.069763 
	C105.876488,401.356049 91.775650,391.654175 81.657898,376.956696 
	C72.017036,362.951935 67.597092,347.143677 67.979874,329.643372 
	C68.605659,312.810455 75.113892,298.969452 86.284119,287.189941 
	C91.547035,281.639984 96.948631,276.221558 102.578697,270.642639 
	C105.558327,267.039581 108.246651,263.537415 111.188156,259.779663 
	C117.402039,246.870575 116.619431,234.172546 111.753067,221.025787 
	C111.724190,218.786148 111.542801,216.966965 111.561203,215.149826 
	C111.639832,207.387741 117.256653,202.005493 124.809326,203.540802 
	C129.325867,204.458893 133.721481,206.861191 137.674744,209.376923 
	C140.784668,211.355988 143.134369,214.529663 145.888031,217.533264 
	C146.339050,218.983475 146.646942,220.107742 147.119995,221.157639 
	C155.316116,239.347855 157.950928,257.654816 148.413803,276.267731 
	C148.053421,276.971069 148.082458,277.873932 147.574356,278.738647 
	C146.420883,279.325958 145.296967,279.680084 144.889069,280.425873 
	C143.845154,282.334473 143.119873,284.417389 142.267166,286.430573 
	C144.403320,286.839539 146.648483,287.878937 148.653961,287.532196 
	C153.498566,286.694550 158.231262,285.209656 163.403809,283.942688 
	C194.431534,276.805359 225.111038,269.903290 255.672699,262.513916 
	C266.581757,259.876221 276.911041,257.593353 284.835907,268.549530 
	C284.796967,270.637360 284.902069,272.414612 285.036255,274.189636 
	C285.619019,281.898132 282.533783,286.960724 275.334717,289.782013 
	C273.020935,290.688812 270.598785,291.360443 268.180298,291.951965 
	C250.567154,296.259979 232.940613,300.513245 215.324432,304.808960 
	C213.994339,305.133270 212.711685,305.652130 210.132706,306.498993 
	C217.335709,310.504608 220.705750,315.753113 221.003357,323.156677 
	C220.027328,330.496643 215.946335,335.544098 210.066299,339.906982 
	C217.322403,343.723816 220.092621,349.073120 218.968079,356.390411 
	C217.894501,363.376129 213.541916,367.797363 207.206589,370.600800 
	C213.261017,376.820435 213.372589,377.180389 212.673874,384.735565 
	C212.603897,385.492218 212.946808,386.287048 213.098099,387.064178 
z"/>
<path fill="#000000" opacity="1.000000" stroke="none" 
	d="
M67.939728,330.078674 
	C67.597092,347.143677 72.017036,362.951935 81.657898,376.956696 
	C91.775650,391.654175 105.876488,401.356049 122.751144,407.069763 
	C123.457840,407.309052 124.023781,407.964050 124.327652,408.712677 
	C83.025558,409.000000 42.051125,409.000000 1.038343,409.000000 
	C1.038343,273.110352 1.038343,137.220718 1.038343,1.000000 
	C57.687130,1.000000 114.374908,1.000000 171.531342,1.000000 
	C171.545425,1.658264 171.216278,2.733568 170.617844,2.913563 
	C157.054367,6.993201 143.226349,10.333590 129.955811,15.198085 
	C120.965950,18.493439 112.335457,23.268295 104.293098,28.526762 
	C93.528938,35.564877 83.181496,43.338341 73.261070,51.529877 
	C67.842552,56.004070 63.525143,61.867947 58.979061,67.328156 
	C53.421597,74.003120 47.925598,80.752449 42.821690,87.773949 
	C39.242306,92.698143 36.363289,98.131432 32.639732,103.682205 
	C29.035210,104.624260 25.953342,105.178421 22.891415,105.826767 
	C13.776556,107.756775 11.861965,111.086693 12.749672,120.372841 
	C13.311478,126.249802 17.724905,128.604080 21.038208,132.465149 
	C20.222109,135.815918 19.558599,138.798798 18.668758,141.712570 
	C13.788649,157.692551 10.787614,174.078110 11.202844,190.727051 
	C11.547914,204.562805 12.869022,218.492676 15.216938,232.129623 
	C18.060833,248.647247 23.588200,264.573700 31.068523,279.598907 
	C35.351372,288.201569 40.478451,296.515198 46.201622,304.235291 
	C52.892754,313.261108 60.646805,321.498962 67.939728,330.078674 
z"/>
<path fill="#2A3033" opacity="1.000000" stroke="none" 
	d="
M21.086321,132.065384 
	C17.724905,128.604080 13.311478,126.249802 12.749672,120.372841 
	C11.861965,111.086693 13.776556,107.756775 22.891415,105.826767 
	C25.953342,105.178421 29.035210,104.624260 32.513336,104.013397 
	C34.798996,104.299156 36.714382,104.999809 38.554390,104.838852 
	C77.035187,101.472542 115.420792,103.135727 153.756058,106.993835 
	C168.797256,108.507599 183.766525,110.899452 198.834244,111.943871 
	C216.673203,113.180374 234.293823,110.491127 251.975662,107.934677 
	C284.833984,103.183990 317.966125,102.282196 351.143860,103.556488 
	C359.581360,103.880554 368.018219,104.219376 376.765381,104.271698 
	C380.973419,104.669762 384.868561,105.364700 388.770325,106.020599 
	C392.869385,106.709648 396.491913,107.884254 397.464966,112.726982 
	C398.478485,117.771019 398.534241,122.668053 395.031097,126.790504 
	C393.452026,128.648727 391.247314,129.975342 388.772705,131.799347 
	C381.686615,136.189545 377.085205,141.457458 375.186005,149.397797 
	C371.473999,164.917496 367.560181,180.432007 362.705109,195.621109 
	C359.056580,207.035568 351.880951,215.855530 339.071136,218.372253 
	C314.164215,223.265686 289.300751,222.657501 264.696533,216.907745 
	C250.492126,213.588287 242.011337,202.768585 237.096390,190.037140 
	C232.148773,177.221054 228.933060,163.697189 225.515701,150.340881 
	C222.295578,137.755432 213.785324,132.217773 200.746246,134.500198 
	C191.792816,136.067459 186.647919,140.491486 184.919022,149.782516 
	C182.973969,160.235214 180.485016,170.677887 177.124054,180.755173 
	C171.712036,196.982269 163.512634,211.282242 145.821762,217.172714 
	C143.134369,214.529663 140.784668,211.355988 137.674744,209.376923 
	C133.721481,206.861191 129.325867,204.458893 124.809326,203.540802 
	C117.256653,202.005493 111.639832,207.387741 111.561203,215.149826 
	C111.542801,216.966965 111.724190,218.786148 111.303757,221.004242 
	C100.003914,220.871323 89.191208,220.617218 78.429565,219.738098 
	C63.626492,218.528824 53.263042,210.987122 47.987301,196.893967 
	C46.355064,192.533737 44.438915,188.236588 43.288311,183.747650 
	C40.192516,171.669815 37.526691,159.482422 34.518223,147.381271 
	C32.694618,140.046097 28.116701,134.931885 21.086321,132.065384 
z"/>
<path fill="#FECB4D" opacity="1.000000" stroke="none" 
	d="
M145.888031,217.533264 
	C163.512634,211.282242 171.712036,196.982269 177.124054,180.755173 
	C180.485016,170.677887 182.973969,160.235214 184.919022,149.782516 
	C186.647919,140.491486 191.792816,136.067459 200.746246,134.500198 
	C213.785324,132.217773 222.295578,137.755432 225.515701,150.340881 
	C228.933060,163.697189 232.148773,177.221054 237.096390,190.037140 
	C242.011337,202.768585 250.492126,213.588287 264.696533,216.907745 
	C289.300751,222.657501 314.164215,223.265686 339.071136,218.372253 
	C351.880951,215.855530 359.056580,207.035568 362.705109,195.621109 
	C367.560181,180.432007 371.473999,164.917496 375.186005,149.397797 
	C377.085205,141.457458 381.686615,136.189545 388.564209,132.069153 
	C390.710388,139.280914 392.843933,146.415955 394.225037,153.693802 
	C395.828522,162.143158 397.033630,170.690659 397.919983,179.246506 
	C398.649475,186.288559 399.209473,193.430832 398.877289,200.483124 
	C398.171661,215.464005 396.306824,230.368393 391.614685,244.681946 
	C387.763062,256.431396 383.916565,268.272766 378.776154,279.481018 
	C374.648987,288.480042 369.241516,297.092224 363.220398,304.973114 
	C355.167297,315.513611 346.573914,325.796814 337.105316,335.058472 
	C326.802063,345.136505 315.064697,353.436005 302.341248,360.721436 
	C289.502625,368.072815 276.400177,374.525513 262.426147,378.737946 
	C250.708740,382.270081 238.366104,383.772003 226.259186,385.943604 
	C222.240250,386.664459 218.093613,386.673462 213.551727,387.036041 
	C212.946808,386.287048 212.603897,385.492218 212.673874,384.735565 
	C213.372589,377.180389 213.261017,376.820435 207.206589,370.600800 
	C213.541916,367.797363 217.894501,363.376129 218.968079,356.390411 
	C220.092621,349.073120 217.322403,343.723816 210.066299,339.906982 
	C215.946335,335.544098 220.027328,330.496643 221.399017,323.122528 
	C259.571320,317.326508 288.099609,297.346466 310.177948,267.127228 
	C312.367523,264.130280 313.945679,260.862122 310.750702,257.700958 
	C307.710480,254.692871 304.698364,256.492889 301.721222,258.319031 
	C296.196075,261.708099 290.574707,264.940369 284.993378,268.237915 
	C276.911041,257.593353 266.581757,259.876221 255.672699,262.513916 
	C225.111038,269.903290 194.431534,276.805359 163.119537,283.724670 
	C157.603699,281.927704 152.766876,280.305786 147.930023,278.683838 
	C148.082458,277.873932 148.053421,276.971069 148.413803,276.267731 
	C157.950928,257.654816 155.316116,239.347855 147.119995,221.157639 
	C146.646942,220.107742 146.339050,218.983475 145.888031,217.533264 
z"/>
<path fill="#FECB4D" opacity="1.000000" stroke="none" 
	d="
M21.038208,132.465149 
	C28.116701,134.931885 32.694618,140.046097 34.518223,147.381271 
	C37.526691,159.482422 40.192516,171.669815 43.288311,183.747650 
	C44.438915,188.236588 46.355064,192.533737 47.987301,196.893967 
	C53.263042,210.987122 63.626492,218.528824 78.429565,219.738098 
	C89.191208,220.617218 100.003914,220.871323 111.243172,221.425629 
	C116.619431,234.172546 117.402039,246.870575 110.887093,259.616577 
	C109.081474,258.893188 107.895386,257.540833 106.564468,257.378906 
	C104.163513,257.086761 100.557770,256.584595 99.505142,257.860870 
	C98.164070,259.486877 98.343666,262.896545 98.839218,265.340302 
	C99.235420,267.294098 101.083641,268.953491 102.287399,270.743530 
	C96.948631,276.221558 91.547035,281.639984 86.284119,287.189941 
	C75.113892,298.969452 68.605659,312.810455 67.979881,329.643372 
	C60.646805,321.498962 52.892754,313.261108 46.201622,304.235291 
	C40.478451,296.515198 35.351372,288.201569 31.068523,279.598907 
	C23.588200,264.573700 18.060833,248.647247 15.216938,232.129623 
	C12.869022,218.492676 11.547914,204.562805 11.202844,190.727051 
	C10.787614,174.078110 13.788649,157.692551 18.668758,141.712570 
	C19.558599,138.798798 20.222109,135.815918 21.038208,132.465149 
z"/>
<path fill="#6A4801" opacity="1.000000" stroke="none" 
	d="
M284.835907,268.549561 
	C290.574707,264.940369 296.196075,261.708099 301.721222,258.319031 
	C304.698364,256.492889 307.710480,254.692871 310.750702,257.700958 
	C313.945679,260.862122 312.367523,264.130280 310.177948,267.127228 
	C288.099609,297.346466 259.571320,317.326508 221.460648,322.734039 
	C220.705750,315.753113 217.335709,310.504608 210.132706,306.498993 
	C212.711685,305.652130 213.994339,305.133270 215.324432,304.808960 
	C232.940613,300.513245 250.567154,296.259979 268.180298,291.951965 
	C270.598785,291.360443 273.020935,290.688812 275.334717,289.782013 
	C282.533783,286.960724 285.619019,281.898132 285.036255,274.189636 
	C284.902069,272.414612 284.796967,270.637360 284.835907,268.549561 
z"/>
<path fill="#6D4B03" opacity="1.000000" stroke="none" 
	d="
M102.578705,270.642639 
	C101.083641,268.953491 99.235420,267.294098 98.839218,265.340302 
	C98.343666,262.896545 98.164070,259.486877 99.505142,257.860870 
	C100.557770,256.584595 104.163513,257.086761 106.564468,257.378906 
	C107.895386,257.540833 109.081474,258.893188 110.633911,259.872101 
	C108.246651,263.537415 105.558327,267.039581 102.578705,270.642639 
z"/>
<path fill="#724C04" opacity="1.000000" stroke="none" 
	d="
M147.574371,278.738647 
	C152.766876,280.305786 157.603699,281.927704 162.724808,283.767700 
	C158.231262,285.209656 153.498566,286.694550 148.653961,287.532196 
	C146.648483,287.878937 144.403320,286.839539 142.267166,286.430573 
	C143.119873,284.417389 143.845154,282.334473 144.889069,280.425873 
	C145.296967,279.680084 146.420883,279.325958 147.574371,278.738647 
z"/>
</svg>